#!OML:ASF I:\Actors\actors\Patient Classification 2\Patient 1\Session 1\actor1.ASF
:FULLY-SPECIFIED
:DEGREES
974
root -0.916694 18.3141 5.74161 4.73157 -1.46174 -3.84028
lowerback 14.3539 1.9262 5.19248
upperback -0.766247 3.53353 0.934807
thorax -8.64462 1.488 -2.68269
lowerneck -2.71755 3.57699 7.43981
upperneck -17.6098 3.8006 -8.98055
head -4.45341 1.91311 -4.14787
rclavicle -1.11319e-014 1.37161e-014
rhumerus 21.2919 27.9643 -62.6973
rradius 139.347
rwrist -55.8571
rhand -4.61477 -55.2602
rfingers 7.12502
rthumb 21.1635 -84.125
lclavicle -1.11319e-014 1.37161e-014
lhumerus -45.5884 -28.1401 106.471
lradius 91.5961
lwrist 11.3398
lhand 1.72084 -19.835
lfingers 7.12502
lthumb 27.2376 8.21838
rfemur 0 0 0
rtibia 0
rfoot 0 0
rtoes 0
lfemur 11.1282 -6.02442 -12.7913
ltibia -16.1394
lfoot -3.20245 19.7376
ltoes -10.1525
975
root -0.916549 18.314 5.73883 4.716 -1.46903 -3.83664
lowerback 14.4271 1.91116 5.14949
upperback -0.806887 3.51615 0.97115
thorax -8.73706 1.47862 -2.62081
lowerneck -2.40225 3.62253 7.39294
upperneck -17.6516 3.88144 -8.97073
head -4.51299 1.96123 -4.14627
rclavicle -1.33683e-014 3.57812e-015
rhumerus 20.5768 28.3952 -63.1154
rradius 139.787
rwrist -56.1578
rhand -4.46092 -55.469
rfingers 7.12502
rthumb 21.3113 -84.3172
lclavicle -1.33683e-014 3.57812e-015
lhumerus -45.7233 -28.0547 106.572
lradius 91.5958
lwrist 11.3336
lhand 1.69038 -19.8953
lfingers 7.12502
lthumb 27.2084 8.16262
rfemur 0 0 0
rtibia 0
rfoot 0 0
rtoes 0
lfemur 11.1395 -6.00696 -12.796
ltibia -16.14
lfoot -3.20825 19.7192
ltoes -10.1963
976
root -0.916197 18.3128 5.73592 4.71907 -1.50762 -3.87879
lowerback 14.4762 1.92227 5.1591
upperback -0.81768 3.53806 0.991257
thorax -8.776 1.48764 -2.6119
lowerneck -2.20026 3.66818 7.38229
upperneck -17.6805 3.96685 -8.89005
head -4.55135 2.00339 -4.12595
rclavicle 5.94863e-014 -9.14409e-015
rhumerus 19.926 28.7235 -63.5667
rradius 140.226
rwrist -56.4626
rhand -4.44711 -55.7215
rfingers 7.12502
rthumb 21.3246 -84.5682
lclavicle 5.94863e-014 -9.14409e-015
lhumerus -45.8052 -28.072 106.607
lradius 91.6174
lwrist 11.2983
lhand 1.61999 -19.8749
lfingers 7.12502
lthumb 27.1411 8.19355
rfemur 0 0 0
rtibia 0
rfoot 0 0
rtoes 0
lfemur 11.1434 -5.98267 -12.7529
ltibia -16.149
lfoot -3.16977 19.7378
ltoes -10.3658
977
root -0.915945 18.3118 5.73366 4.7237 -1.57162 -3.87459
lowerback 14.5111 1.95131 5.12573
upperback -0.79735 3.57101 0.979336
thorax -8.77216 1.5051 -2.614
lowerneck -2.13946 3.71774 7.38997
upperneck -17.6961 4.05652 -8.76239
head -4.56319 2.04127 -4.09058
rclavicle 5.66536e-015 1.96797e-014
rhumerus 19.2155 29.0974 -64.1395
rradius 140.693
rwrist -56.5523
rhand -4.54896 -55.9744
rfingers 7.12502
rthumb 21.2267 -84.8321
lclavicle 5.66536e-015 1.96797e-014
lhumerus -45.8136 -28.1502 106.576
lradius 91.6613
lwrist 11.3149
lhand 1.58466 -19.7447
lfingers 7.12502
lthumb 27.1073 8.32899
rfemur 0 0 0
rtibia 0
rfoot 0 0
rtoes 0
lfemur 11.1523 -5.93598 -12.7667
ltibia -16.1638
lfoot -3.12758 19.7619
ltoes -10.6003
978
root -0.915408 18.3123 5.73138 4.72936 -1.66573 -3.84068
lowerback 14.5111 1.96055 5.05246
upperback -0.787851 3.57116 0.990861
thorax -8.76676 1.5092 -2.56035
lowerneck -1.87157 3.78354 7.3846
upperneck -17.7964 4.17368 -8.66499
head -4.6325 2.0985 -4.07041
rclavicle 1.27222e-014 4.96962e-015
rhumerus 18.495 29.7538 -64.6851
rradius 141.241
rwrist -55.9772
rhand -4.5027 -55.9616
rfingers 7.12502
rthumb 21.2712 -84.8143
lclavicle 1.27222e-014 4.96962e-015
lhumerus -45.8079 -28.0702 106.563
lradius 91.684
lwrist 11.318
lhand 1.48245 -19.5714
lfingers 7.12502
lthumb 27.0095 8.51755
rfemur 0 0 0
rtibia 0
rfoot 0 0
rtoes 0
lfemur 11.1566 -5.89562 -12.8143
ltibia -16.1613
lfoot -3.16418 19.8119
ltoes -10.4842
979
root -0.91574 18.3128 5.72874 4.74739 -1.74943 -3.80666
lowerback 14.4725 1.96502 4.95764
upperback -0.778151 3.55944 1.00916
thorax -8.74165 1.50949 -2.48296
lowerneck -1.53742 3.87552 7.49399
upperneck -17.8836 4.32004 -8.67845
head -4.70008 2.17016 -4.10638
rclavicle -1.67973e-014 1.39149e-014
rhumerus 17.8429 30.5037 -65.0885
rradius 141.829
rwrist -54.8626
rhand -4.66099 -55.3417
rfingers 7.12502
rthumb 21.1191 -84.2115
lclavicle -1.67973e-014 1.39149e-014
lhumerus -45.7419 -27.9499 106.527
lradius 91.655
lwrist 11.2989
lhand 1.40502 -19.5451
lfingers 7.12502
lthumb 26.9354 8.55532
rfemur 0 0 0
rtibia 0
rfoot 0 0
rtoes 0
lfemur 11.1377 -5.89599 -12.8515
ltibia -16.141
lfoot -3.23348 19.875
ltoes -10.1167
980
root -0.916721 18.3131 5.72555 4.76881 -1.82273 -3.77185
lowerback 14.4358 1.97843 4.86865
upperback -0.76713 3.55803 0.997184
thorax -8.71303 1.51381 -2.4435
lowerneck -1.27798 3.9898 7.58758
upperneck -17.8684 4.51075 -8.59093
head -4.7242 2.25763 -4.10434
rclavicle -2.88238e-014 -1.45113e-014
rhumerus 17.1919 31.0094 -65.5419
rradius 142.407
rwrist -54.279
rhand -4.83395 -55.0474
rfingers 7.12502
rthumb 20.9529 -83.9357
lclavicle -2.88238e-014 -1.45113e-014
lhumerus -45.6623 -27.8768 106.433
lradius 91.6168
lwrist 11.3146
lhand 1.48221 -19.6268
lfingers 7.12502
lthumb 27.0093 8.46214
rfemur 0 0 0
rtibia 0
rfoot 0 0
rtoes 0
lfemur 11.1146 -5.88977 -12.8867
ltibia -16.1254
lfoot -3.26114 19.9141
ltoes -9.92846
981
root -0.916502 18.3139 5.72204 4.78471 -1.90217 -3.79866
lowerback 14.4274 1.99369 4.88351
upperback -0.770036 3.57934 0.984718
thorax -8.70817 1.52319 -2.46926
lowerneck -1.12554 4.10875 7.56111
upperneck -17.641 4.73228 -8.30011
head -4.67366 2.35464 -4.01021
rclavicle 8.94531e-015 2.38542e-015
rhumerus 16.5344 31.339 -66.0907
rradius 142.895
rwrist -54.0369
rhand -4.77441 -55.2052
rfingers 7.12502
rthumb 21.0102 -84.0872
lclavicle 8.94531e-015 2.38542e-015
lhumerus -45.6584 -27.8134 106.344
lradius 91.6284
lwrist 11.3376
lhand 1.6101 -19.7169
lfingers 7.12502
lthumb 27.1316 8.35305
rfemur 0 0 0
rtibia 0
rfoot 0 0
rtoes 0
lfemur 11.1011 -5.90518 -12.8628
ltibia -16.1167
lfoot -3.2787 20.0075
ltoes -9.9751
982
root -0.915601 18.3139 5.71897 4.78557 -1.96362 -3.83833
lowerback 14.4463 2.00158 4.91879
upperback -0.78707 3.59846 0.991607
thorax -8.73461 1.52977 -2.48702
lowerneck -0.969929 4.19966 7.64848
upperneck -17.343 4.90256 -8.1406
head -4.59884 2.42748 -3.97329
rclavicle -3.43897e-014 -1.5704e-014
rhumerus 15.8438 31.6956 -66.6727
rradius 143.256
rwrist -53.5504
rhand -4.94618 -54.9299
rfingers 7.12502
rthumb 20.8451 -83.8301
lclavicle -3.43897e-014 -1.5704e-014
lhumerus -45.6837 -27.7286 106.298
lradius 91.659
lwrist 11.3266
lhand 1.65421 -19.7974
lfingers 7.12502
lthumb 27.1738 8.26597
rfemur 0 0 0
rtibia 0
rfoot 0 0
rtoes 0
lfemur 11.106 -5.95436 -12.8301
ltibia -16.1131
lfoot -3.31219 20.1176
ltoes -9.99466
983
root -0.915495 18.3136 5.71599 4.77464 -1.99273 -3.82111
lowerback 14.4513 2.00091 4.85039
upperback -0.778522 3.58792 1.01654
thorax -8.73453 1.52862 -2.41981
lowerneck -0.748277 4.27305 7.78195
upperneck -17.1358 5.0329 -8.12039
head -4.55952 2.48681 -3.99132
rclavicle -6.65929e-015 -6.55989e-015
rhumerus 15.0386 32.0437 -67.255
rradius 143.581
rwrist -53.0439
rhand -5.40148 -54.3097
rfingers 7.12502
rthumb 20.4076 -83.2574
lclavicle -6.65929e-015 -6.55989e-015
lhumerus -45.6288 -27.6103 106.258
lradius 91.681
lwrist 11.2826
lhand 1.65678 -19.8231
lfingers 7.12502
lthumb 27.1763 8.23982
rfemur 0 0 0
rtibia 0
rfoot 0 0
rtoes 0
lfemur 11.1203 -5.98466 -12.8575
ltibia -16.1217
lfoot -3.32886 20.156
ltoes -9.88477
984
root -0.915741 18.3144 5.71352 4.79448 -1.99435 -3.79234
lowerback 14.3912 1.99918 4.73781
upperback -0.744439 3.56407 1.05051
thorax -8.67353 1.52575 -2.3115
lowerneck -0.664738 4.35691 7.8187
upperneck -16.7865 5.18305 -7.98881
head -4.4591 2.55422 -3.95098
rclavicle -6.95746e-016 -1.0138e-014
rhumerus 14.0941 32.4863 -67.8849
rradius 143.865
rwrist -52.294
rhand -5.56343 -53.7816
rfingers 7.12502
rthumb 20.252 -82.7458
lclavicle -6.95746e-016 -1.0138e-014
lhumerus -45.5313 -27.5225 106.195
lradius 91.7403
lwrist 11.2448
lhand 1.70052 -19.7671
lfingers 7.12502
lthumb 27.2181 8.28929
rfemur 0 0 0
rtibia 0
rfoot 0 0
rtoes 0
lfemur 11.0894 -5.99076 -12.8883
ltibia -16.1256
lfoot -3.31211 20.156
ltoes -9.765
